<svg xmlns="http://www.w3.org/2000/svg" aria-hidden="true" overflow="hidden" style="position:absolute;width:0;height:0">
  <defs>
    <symbol id="icon-Header-arrow-down" viewBox="0 0 32 32">
      <path d="m27.061 13.061-10 10a1.502 1.502 0 0 1-1.637.327 1.502 1.502 0 0 1-.487-.327l-10-10a1.502 1.502 0 0 1 2.126-2.126l8.939 8.939 8.939-8.94a1.502 1.502 0 1 1 2.125 2.126l-.003.001z"/>
    </symbol>
    <symbol id="icon-Header-cart-icon" viewBox="0 0 32 32">
      <path d="M12.5 27a2.506 2.506 0 0 1-1.543 2.31 2.496 2.496 0 0 1-2.724-.542 2.503 2.503 0 0 1 .379-3.846 2.5 2.5 0 0 1 3.889 2.079zM23 24.5a2.506 2.506 0 0 0-2.31 1.543 2.496 2.496 0 0 0 .542 2.724 2.503 2.503 0 0 0 3.846-.379 2.498 2.498 0 0 0-.311-3.157 2.5 2.5 0 0 0-1.768-.732zm6.434-15.059-3.411 11.088A3.484 3.484 0 0 1 22.677 23h-12.31a3.512 3.512 0 0 1-3.366-2.539L2.727 5.5H1.501A1.503 1.503 0 0 1 .001 4a1.503 1.503 0 0 1 1.5-1.5h1.602a2.51 2.51 0 0 1 2.404 1.813l.911 3.186H28a1.498 1.498 0 0 1 1.434 1.941zM25.969 10.5H7.274l2.611 9.137a.497.497 0 0 0 .481.363h12.31a.502.502 0 0 0 .478-.352l2.814-9.147z"/>
    </symbol>
    <symbol id="icon-Header-search-icon" viewBox="0 0 32 32">
      <path d="m30.249 27.933-6.476-6.479a12.562 12.562 0 1 0-19.411.637 12.563 12.563 0 0 0 17.091 1.683l6.481 6.483a1.633 1.633 0 0 0 1.159.48 1.628 1.628 0 0 0 1.159-.48 1.633 1.633 0 0 0 .48-1.159 1.628 1.628 0 0 0-.48-1.159l-.006-.004zM4.545 13.818a9.274 9.274 0 1 1 9.273 9.273c-2.459-.002-4.816-.98-6.554-2.719s-2.716-4.096-2.719-6.554z"/>
    </symbol>
    <symbol id="icon-Header-user-icon" viewBox="0 0 32 32">
      <path d="M16 2.5a13.502 13.502 0 0 0-12.472 8.334 13.497 13.497 0 0 0 2.927 14.712 13.5 13.5 0 0 0 23.046-9.545 13.512 13.512 0 0 0-13.5-13.5zM9.946 24.571c.696-.952 1.607-1.727 2.659-2.26s2.215-.812 3.394-.812a7.493 7.493 0 0 1 6.053 3.072 10.464 10.464 0 0 1-12.108 0zM12.5 15a3.494 3.494 0 0 1 2.161-3.233 3.498 3.498 0 0 1 4.772 2.551A3.498 3.498 0 0 1 16 18.501a3.502 3.502 0 0 1-3.5-3.5zm11.75 7.493a10.435 10.435 0 0 0-3.625-2.928 6.498 6.498 0 0 0-4.626-11.067 6.498 6.498 0 0 0-5.998 3.994 6.496 6.496 0 0 0 1.372 7.073 10.424 10.424 0 0 0-3.625 2.928 10.503 10.503 0 0 1-1.205-11.084 10.501 10.501 0 1 1 17.693 11.084h.013z"/>
    </symbol>
    <symbol id="icon-blog-arrow" viewBox="0 0 32 32">
      <path d="m12.939 5.939-9 9a1.502 1.502 0 0 0-.327 1.637c.076.182.187.348.327.487l9 9a1.502 1.502 0 1 0 2.125-2.126l-6.439-6.439H27a1.503 1.503 0 0 0 1.5-1.5 1.503 1.503 0 0 0-1.5-1.5H8.625l6.44-6.439a1.502 1.502 0 0 0-2.125-2.126l-.001.003z"/>
    </symbol>
  </defs>
</svg>
